# xmcd
#
# Track frame offsets:
#	150
#	21680
#	44377
#	65449
#	85031
#	106074
#	124572
#	144333
#	163638
#	184459
#	204822
#	223450
#	241702
#
# Disc length: 3467 seconds
#
# Revision: 1
# Processed by: cddbd v1.5.2PL0 Copyright (c) Steve Scherf et al.
# Submitted via: EZCDAudioConverter 8.0.2.1
#
DISCID=b40d890d
DTITLE=Bằng Cường - Vol 18. Người Tình Bóng Đêm
DYEAR=2011
DGENRE=World Pop
TTITLE0=Bằng Cường - Hành trang buồn
TTITLE1=Bằng Cường - Người Tình Bóng Đêm
TTITLE2=Bằng Cường - Hình bóng em F2
TTITLE3=Bằng Cường, Mắt Ngọc - Yêu em thôi
TTITLE4=Bằng Cường - Làm sao quên em
TTITLE5=Bằng Cường - Có những tháng ngày
TTITLE6=Bằng Cường, Quang Hà - Khi anh gặp em
TTITLE7=Bằng Cường - Dành cho em
TTITLE8=Bằng Cường - Người yêu ơi em là ai
TTITLE9=Bằng Cường - Gom ngàn yêu thương
TTITLE10=Bằng Cường - Chúng ta chưa vì nhau Remix
TTITLE11=Bằng Cường - Tôn thờ một tình yêu Remix
TTITLE12=Bằng Cường - Tình yêu và nỗi nhớ Remix
EXTD=
EXTT0=
EXTT1=
EXTT2=
EXTT3=
EXTT4=
EXTT5=
EXTT6=
EXTT7=
EXTT8=
EXTT9=
EXTT10=
EXTT11=
EXTT12=
PLAYORDER=
